<svg width="614" height="568" viewBox="0 0 614 568" fill="none" xmlns="http://www.w3.org/2000/svg">
<g clip-path="url(#clip0)">
<path d="M492.979 115.569H490.31V42.3673C490.31 36.8036 489.216 31.2943 487.089 26.1541C484.963 21.0138 481.846 16.3433 477.917 12.4091C473.988 8.47494 469.323 5.35419 464.189 3.22503C459.055 1.09587 453.553 2.63271e-06 447.996 1.03442e-10H293.104C281.881 -2.48117e-05 271.119 4.46363 263.183 12.409C255.248 20.3544 250.79 31.1307 250.79 42.3672V443.959C250.79 455.195 255.248 465.971 263.183 473.917C271.119 481.862 281.881 486.326 293.104 486.326H447.996C459.219 486.326 469.981 481.862 477.917 473.917C485.852 465.972 490.31 455.195 490.31 443.959V167.676H492.979L492.979 115.569Z" fill="white"/>
<path d="M481.304 42.663V443.663C481.304 452.055 477.974 460.103 472.048 466.037C466.122 471.971 458.084 475.304 449.703 475.304H294.067C285.686 475.304 277.649 471.971 271.722 466.037C265.796 460.103 262.466 452.055 262.466 443.663V42.663C262.466 34.2713 265.796 26.2234 271.722 20.2897C277.649 14.3559 285.686 11.0223 294.067 11.0221H312.948C312.02 13.3048 311.667 15.7807 311.919 18.2322C312.171 20.6837 313.021 23.0355 314.394 25.0808C315.767 27.1262 317.621 28.8024 319.793 29.9619C321.965 31.1215 324.388 31.7289 326.85 31.7307H415.586C418.047 31.7288 420.47 31.1214 422.642 29.9619C424.814 28.8023 426.668 27.1262 428.041 25.0808C429.414 23.0355 430.264 20.6836 430.516 18.2322C430.769 15.7807 430.415 13.3048 429.488 11.0221H449.703C458.084 11.0223 466.122 14.3559 472.048 20.2897C477.974 26.2234 481.304 34.2713 481.304 42.663Z" fill="#E5E5E5"/>
<path d="M302.363 48.2139C296.699 48.2138 291.267 50.4667 287.262 54.4769C283.257 58.4871 281.007 63.926 281.007 69.5973C281.007 75.2685 283.257 80.7075 287.262 84.7177C291.267 88.7279 296.699 90.9808 302.363 90.9808H302.363C308.028 90.9808 313.46 88.7279 317.465 84.7178C321.47 80.7076 323.72 75.2686 323.72 69.5974C323.72 63.9261 321.47 58.4871 317.465 54.4769C313.46 50.4668 308.028 48.2139 302.363 48.2139Z" fill="white"/>
<path d="M457.424 87.6397H345.303C343.886 87.6397 342.528 87.0765 341.527 86.074C340.526 85.0714 339.963 83.7117 339.963 82.2939C339.963 80.8761 340.526 79.5163 341.527 78.5138C342.528 77.5112 343.886 76.948 345.303 76.948H457.424C458.84 76.948 460.198 77.5112 461.2 78.5138C462.201 79.5163 462.763 80.8761 462.763 82.2939C462.763 83.7117 462.201 85.0714 461.2 86.074C460.198 87.0765 458.84 87.6397 457.424 87.6397Z" fill="white"/>
<path d="M380.674 64.9198H345.303C343.886 64.9198 342.528 64.3565 341.527 63.354C340.526 62.3515 339.963 60.9917 339.963 59.5739C339.963 58.1561 340.526 56.7963 341.527 55.7938C342.528 54.7913 343.886 54.228 345.303 54.228H380.674C382.09 54.228 383.448 54.7913 384.45 55.7938C385.451 56.7963 386.013 58.1561 386.013 59.5739C386.013 60.9917 385.451 62.3515 384.45 63.354C383.448 64.3565 382.09 64.9198 380.674 64.9198Z" fill="white"/>
<path d="M302.363 137.757C296.699 137.757 291.267 140.01 287.262 144.02C283.257 148.03 281.007 153.469 281.007 159.141C281.007 164.812 283.257 170.251 287.262 174.261C291.267 178.271 296.699 180.524 302.363 180.524H302.363C308.028 180.524 313.46 178.271 317.465 174.261C321.47 170.251 323.72 164.812 323.72 159.141C323.72 153.469 321.47 148.03 317.465 144.02C313.46 140.01 308.028 137.757 302.363 137.757Z" fill="white"/>
<path d="M457.424 177.183H345.303C343.886 177.183 342.528 176.62 341.527 175.617C340.526 174.615 339.963 173.255 339.963 171.837C339.963 170.419 340.526 169.06 341.527 168.057C342.528 167.055 343.886 166.491 345.303 166.491H457.424C458.84 166.491 460.198 167.055 461.2 168.057C462.201 169.06 462.763 170.419 462.763 171.837C462.763 173.255 462.201 174.615 461.2 175.617C460.198 176.62 458.84 177.183 457.424 177.183Z" fill="white"/>
<path d="M380.674 154.463H345.303C343.886 154.463 342.528 153.9 341.527 152.897C340.526 151.895 339.963 150.535 339.963 149.117C339.963 147.699 340.526 146.34 341.527 145.337C342.528 144.335 343.886 143.771 345.303 143.771H380.674C382.09 143.771 383.448 144.335 384.45 145.337C385.451 146.34 386.013 147.699 386.013 149.117C386.013 150.535 385.451 151.895 384.45 152.897C383.448 153.9 382.09 154.463 380.674 154.463Z" fill="white"/>
<path d="M302.363 316.844C296.699 316.844 291.267 319.097 287.262 323.107C283.257 327.117 281.007 332.556 281.007 338.227C281.007 343.899 283.257 349.338 287.262 353.348C291.267 357.358 296.699 359.611 302.363 359.611H302.363C308.028 359.611 313.46 357.358 317.465 353.348C321.47 349.338 323.72 343.899 323.72 338.227C323.72 332.556 321.47 327.117 317.465 323.107C313.46 319.097 308.028 316.844 302.363 316.844Z" fill="white"/>
<path d="M457.424 356.27H345.303C343.886 356.27 342.528 355.707 341.527 354.704C340.526 353.701 339.963 352.342 339.963 350.924C339.963 349.506 340.526 348.146 341.527 347.144C342.528 346.141 343.886 345.578 345.303 345.578H457.424C458.84 345.578 460.198 346.141 461.2 347.144C462.201 348.146 462.763 349.506 462.763 350.924C462.763 352.342 462.201 353.701 461.2 354.704C460.198 355.707 458.84 356.27 457.424 356.27Z" fill="white"/>
<path d="M380.674 333.55H345.303C343.886 333.55 342.528 332.987 341.527 331.984C340.526 330.982 339.963 329.622 339.963 328.204C339.963 326.786 340.526 325.426 341.527 324.424C342.528 323.421 343.886 322.858 345.303 322.858H380.674C382.09 322.858 383.448 323.421 384.45 324.424C385.451 325.426 386.013 326.786 386.013 328.204C386.013 329.622 385.451 330.982 384.45 331.984C383.448 332.987 382.09 333.55 380.674 333.55Z" fill="white"/>
<path d="M302.363 406.387C296.699 406.387 291.267 408.64 287.262 412.65C283.257 416.66 281.007 422.099 281.007 427.771C281.007 433.442 283.257 438.881 287.262 442.891C291.267 446.901 296.699 449.154 302.363 449.154H302.363C308.028 449.154 313.46 446.901 317.465 442.891C321.47 438.881 323.72 433.442 323.72 427.771C323.72 422.099 321.47 416.66 317.465 412.65C313.46 408.64 308.028 406.387 302.363 406.387Z" fill="white"/>
<path d="M457.424 445.813H345.303C343.886 445.813 342.528 445.25 341.527 444.247C340.526 443.245 339.963 441.885 339.963 440.467C339.963 439.049 340.526 437.69 341.527 436.687C342.528 435.685 343.886 435.121 345.303 435.121H457.424C458.84 435.121 460.198 435.685 461.2 436.687C462.201 437.69 462.763 439.049 462.763 440.467C462.763 441.885 462.201 443.245 461.2 444.247C460.198 445.25 458.84 445.813 457.424 445.813Z" fill="white"/>
<path d="M380.674 423.093H345.303C343.886 423.093 342.528 422.53 341.527 421.527C340.526 420.525 339.963 419.165 339.963 417.747C339.963 416.33 340.526 414.97 341.527 413.967C342.528 412.965 343.886 412.401 345.303 412.401H380.674C382.09 412.401 383.448 412.965 384.45 413.967C385.451 414.97 386.013 416.33 386.013 417.747C386.013 419.165 385.451 420.525 384.45 421.527C383.448 422.53 382.09 423.093 380.674 423.093Z" fill="white"/>
<path d="M500.692 300.138H243.079C240.159 300.135 237.36 298.972 235.296 296.905C233.231 294.838 232.07 292.036 232.067 289.112V206.251C232.07 203.328 233.231 200.525 235.296 198.458C237.36 196.391 240.159 195.229 243.079 195.225H500.692C503.611 195.229 506.41 196.391 508.475 198.458C510.539 200.525 511.7 203.328 511.704 206.251V289.112C511.7 292.036 510.539 294.838 508.475 296.905C506.41 298.972 503.611 300.135 500.692 300.138Z" fill="white"/>
<path d="M274.715 278.238C268.679 278.238 262.779 276.446 257.761 273.088C252.742 269.731 248.831 264.958 246.521 259.375C244.211 253.792 243.607 247.648 244.784 241.721C245.962 235.794 248.868 230.349 253.136 226.076C257.404 221.802 262.842 218.892 268.762 217.713C274.681 216.534 280.817 217.139 286.394 219.452C291.97 221.765 296.736 225.681 300.089 230.706C303.443 235.731 305.232 241.639 305.232 247.682C305.223 255.783 302.005 263.55 296.284 269.278C290.563 275.006 282.806 278.228 274.715 278.238ZM274.715 218.463C268.943 218.463 263.301 220.176 258.502 223.387C253.703 226.598 249.963 231.161 247.754 236.5C245.545 241.839 244.968 247.714 246.094 253.382C247.22 259.05 249.999 264.257 254.08 268.343C258.161 272.429 263.361 275.212 269.022 276.34C274.683 277.467 280.55 276.888 285.883 274.677C291.215 272.465 295.773 268.72 298.98 263.915C302.186 259.11 303.898 253.461 303.898 247.682C303.889 239.935 300.812 232.508 295.341 227.03C289.87 221.553 282.452 218.471 274.715 218.463Z" fill="#55AE3A"/>
<path d="M491.443 272.9H334.731C333.75 272.901 332.779 272.708 331.873 272.333C330.967 271.958 330.143 271.408 329.449 270.714C328.756 270.02 328.205 269.196 327.83 268.289C327.454 267.382 327.261 266.41 327.261 265.428C327.261 264.446 327.454 263.474 327.83 262.567C328.205 261.66 328.756 260.836 329.449 260.142C330.143 259.448 330.967 258.898 331.873 258.523C332.779 258.147 333.75 257.955 334.731 257.956H491.443C492.423 257.955 493.394 258.147 494.301 258.523C495.207 258.898 496.03 259.448 496.724 260.142C497.418 260.836 497.968 261.66 498.343 262.567C498.719 263.474 498.912 264.446 498.912 265.428C498.912 266.41 498.719 267.382 498.343 268.289C497.968 269.196 497.418 270.02 496.724 270.714C496.03 271.408 495.207 271.958 494.301 272.333C493.394 272.708 492.423 272.901 491.443 272.9Z" fill="#55AE3A"/>
<path d="M384.17 241.144H334.731C333.75 241.145 332.779 240.952 331.873 240.577C330.967 240.202 330.143 239.652 329.449 238.958C328.756 238.264 328.205 237.44 327.83 236.533C327.454 235.626 327.261 234.654 327.261 233.672C327.261 232.69 327.454 231.718 327.83 230.811C328.205 229.904 328.756 229.08 329.449 228.386C330.143 227.692 330.967 227.142 331.873 226.767C332.779 226.392 333.75 226.199 334.731 226.2H384.17C385.15 226.199 386.121 226.392 387.028 226.767C387.934 227.142 388.757 227.692 389.451 228.386C390.145 229.08 390.695 229.904 391.07 230.811C391.446 231.718 391.639 232.69 391.639 233.672C391.639 234.654 391.446 235.626 391.07 236.533C390.695 237.44 390.145 238.264 389.451 238.958C388.757 239.652 387.934 240.202 387.028 240.577C386.121 240.952 385.15 241.145 384.17 241.144Z" fill="#55AE3A"/>
<path d="M500.692 300.138H243.079C240.159 300.135 237.36 298.972 235.296 296.905C233.231 294.838 232.07 292.036 232.067 289.112V206.251C232.07 203.328 233.231 200.525 235.296 198.458C237.36 196.391 240.159 195.229 243.079 195.225H500.692C503.611 195.229 506.41 196.391 508.475 198.458C510.539 200.525 511.7 203.328 511.704 206.251V289.112C511.7 292.036 510.539 294.838 508.475 296.905C506.41 298.972 503.611 300.135 500.692 300.138ZM243.079 195.894C240.336 195.897 237.707 196.989 235.767 198.931C233.828 200.873 232.737 203.505 232.734 206.251V289.112C232.737 291.858 233.828 294.491 235.767 296.433C237.707 298.375 240.336 299.467 243.079 299.47H500.692C503.434 299.467 506.064 298.375 508.003 296.433C509.942 294.491 511.033 291.858 511.036 289.112V206.251C511.033 203.505 509.942 200.873 508.003 198.931C506.064 196.989 503.434 195.897 500.692 195.894H243.079Z" fill="#55AE3A"/>
<path d="M274.176 262.552C281.052 262.552 286.626 256.971 286.626 250.086C286.626 243.202 281.052 237.621 274.176 237.621C267.3 237.621 261.726 243.202 261.726 250.086C261.726 256.971 267.3 262.552 274.176 262.552Z" fill="#006633"/>
<path d="M264.458 243.365C266.47 241.351 266.878 238.493 265.369 236.982C263.86 235.472 261.006 235.88 258.994 237.894C256.982 239.909 256.575 242.766 258.084 244.277C259.592 245.788 262.447 245.38 264.458 243.365Z" fill="#006633"/>
<path d="M287.152 239.407C287.99 237.442 286.549 234.942 283.932 233.823C281.316 232.704 278.515 233.389 277.677 235.354C276.839 237.319 278.28 239.819 280.897 240.938C283.513 242.057 286.314 241.371 287.152 239.407Z" fill="#006633"/>
<path d="M274.571 263.641C280.406 263.641 285.137 258.905 285.137 253.062C285.137 247.219 280.406 242.483 274.571 242.483C268.735 242.483 264.005 247.219 264.005 253.062C264.005 258.905 268.735 263.641 274.571 263.641Z" fill="#FFB8B8"/>
<path d="M263.469 246.408C265.883 248.074 268.749 248.961 271.681 248.949C270.635 249.675 269.444 250.166 268.191 250.387C272.09 251.224 276.119 251.247 280.027 250.453C280.896 250.314 281.734 250.026 282.505 249.601C282.889 249.386 283.224 249.093 283.487 248.74C283.751 248.387 283.937 247.983 284.034 247.553C284.294 246.068 283.138 244.718 281.937 243.809C280.097 242.438 277.977 241.493 275.728 241.043C273.479 240.593 271.159 240.649 268.934 241.207C267.452 241.506 266.104 242.269 265.083 243.386C264.14 244.554 263.861 246.355 264.759 247.557L263.469 246.408Z" fill="#006633"/>
<path d="M118.619 341.578C118.31 340.575 118.224 339.517 118.368 338.477C118.512 337.438 118.881 336.442 119.451 335.561C120.02 334.68 120.776 333.935 121.664 333.378C122.552 332.821 123.552 332.465 124.592 332.337L158.851 292.254L166.842 300.654L132.717 339.087C132.817 340.851 132.267 342.59 131.171 343.976C130.076 345.361 128.511 346.295 126.773 346.603C125.035 346.91 123.245 346.568 121.742 345.642C120.24 344.716 119.128 343.27 118.619 341.578Z" fill="#FFB8B8"/>
<path d="M147.706 298.513C147.671 298.082 147.729 297.649 147.876 297.243C148.024 296.837 148.257 296.467 148.56 296.16L159.144 285.414C160.446 283.627 162.403 282.431 164.585 282.087C166.767 281.744 168.996 282.28 170.783 283.58C172.57 284.88 173.769 286.836 174.118 289.02C174.466 291.204 173.935 293.437 172.641 295.23L165.604 308.631C165.403 309.014 165.122 309.348 164.78 309.612C164.438 309.876 164.044 310.064 163.624 310.161C163.203 310.259 162.767 310.264 162.344 310.178C161.921 310.091 161.522 309.914 161.173 309.66L148.927 300.698C148.578 300.443 148.289 300.116 148.078 299.739C147.867 299.362 147.74 298.944 147.706 298.513Z" fill="#55AE3A"/>
<path d="M172.558 273.919C181.611 273.919 188.95 266.571 188.95 257.506C188.95 248.442 181.611 241.094 172.558 241.094C163.505 241.094 156.166 248.442 156.166 257.506C156.166 266.571 163.505 273.919 172.558 273.919Z" fill="#FFB8B8"/>
<path d="M163.645 330.951C163.319 330.708 163.047 330.401 162.844 330.049C162.641 329.697 162.513 329.307 162.467 328.903C161.333 319.418 159.684 310.002 157.526 300.697C156.571 296.515 157.164 292.129 159.196 288.352C161.228 284.576 164.56 281.667 168.573 280.165C172.585 278.664 177.006 278.672 181.014 280.188C185.021 281.705 188.342 284.627 190.36 288.411C196.806 300.524 197.299 317.156 197.211 323.744C197.201 324.447 196.945 325.125 196.487 325.658C196.029 326.191 195.399 326.547 194.706 326.662L165.945 331.51C165.778 331.538 165.608 331.552 165.438 331.552C164.791 331.552 164.162 331.341 163.645 330.951Z" fill="#006633"/>
<path d="M225.739 277.511C225.657 277.872 225.604 278.238 225.579 278.607L196.91 295.168L189.941 291.151L182.512 300.888L194.159 309.2C195.1 309.871 196.233 310.219 197.388 310.191C198.543 310.163 199.657 309.76 200.564 309.043L230.128 285.691C231.462 286.186 232.915 286.262 234.293 285.91C235.671 285.557 236.91 284.793 237.844 283.718C238.778 282.644 239.363 281.31 239.522 279.894C239.68 278.479 239.404 277.049 238.731 275.794C238.058 274.539 237.019 273.519 235.753 272.87C234.487 272.22 233.053 271.972 231.642 272.159C230.232 272.345 228.912 272.957 227.857 273.913C226.803 274.87 226.064 276.125 225.739 277.511Z" fill="#FFB8B8"/>
<path d="M195.951 295.952L186.685 307.976C186.422 308.318 186.088 308.599 185.706 308.801C185.324 309.002 184.903 309.118 184.472 309.142C184.041 309.165 183.61 309.096 183.208 308.937C182.807 308.779 182.444 308.536 182.145 308.225L171.655 297.319C169.915 295.958 168.784 293.962 168.511 291.768C168.239 289.574 168.846 287.362 170.2 285.615C171.554 283.869 173.544 282.732 175.734 282.452C177.924 282.173 180.136 282.774 181.884 284.125L195.04 291.491C195.417 291.702 195.744 291.992 195.998 292.34C196.253 292.689 196.43 293.089 196.516 293.512C196.602 293.936 196.597 294.373 196.499 294.794C196.402 295.215 196.215 295.61 195.951 295.952H195.951Z" fill="#55AE3A"/>
<path d="M210.396 478.751L218.579 478.75L220.505 447.253L210.395 447.151L210.396 478.751Z" fill="#FFB8B8"/>
<path d="M208.309 476.076L224.423 476.075H224.423C225.772 476.075 227.107 476.341 228.353 476.858C229.599 477.375 230.731 478.132 231.685 479.087C232.638 480.041 233.394 481.175 233.911 482.422C234.427 483.67 234.692 485.007 234.692 486.357V486.691L208.31 486.692L208.309 476.076Z" fill="#006633"/>
<path d="M132.312 478.751L140.494 478.75L144.386 447.151L132.31 447.151L132.312 478.751Z" fill="#FFB8B8"/>
<path d="M130.225 476.076L146.338 476.075H146.339C147.687 476.075 149.022 476.341 150.268 476.858C151.514 477.375 152.646 478.132 153.6 479.087C154.553 480.041 155.31 481.175 155.826 482.422C156.342 483.67 156.607 485.007 156.607 486.357V486.691L130.225 486.692L130.225 476.076Z" fill="#006633"/>
<path d="M141.229 462.339L131.075 461.013C130.651 460.958 130.243 460.812 129.88 460.586C129.516 460.36 129.205 460.059 128.967 459.703C128.729 459.347 128.57 458.944 128.501 458.521C128.431 458.098 128.452 457.666 128.563 457.252L143.375 384.373C144.848 377.298 145.867 370.136 146.426 362.93C146.858 357.068 148.572 348.778 154.282 342.579C156.604 340.035 158.772 337.354 160.772 334.549L165.256 328.334L195.123 323.576L195.144 323.946C196.434 347.709 202.598 370.951 213.253 392.224C218.046 401.792 220.797 412.254 221.331 422.944L223.024 455.99C223.045 456.409 222.978 456.827 222.829 457.219C222.679 457.61 222.449 457.966 222.154 458.263C221.86 458.563 221.506 458.796 221.115 458.948C220.725 459.101 220.306 459.168 219.888 459.147L210.181 458.705C209.523 458.674 208.893 458.428 208.388 458.004C207.884 457.581 207.532 457.003 207.387 456.359L199.282 420.155C199.209 419.832 199.069 419.528 198.871 419.262L173.437 385.307C173.255 385.065 173.012 384.877 172.732 384.762C172.452 384.648 172.146 384.612 171.847 384.658C171.548 384.705 171.268 384.831 171.035 385.025C170.803 385.219 170.627 385.472 170.527 385.757L144.452 460.35C144.244 460.938 143.86 461.447 143.352 461.808C142.844 462.168 142.237 462.363 141.614 462.364C141.485 462.364 141.357 462.356 141.229 462.339Z" fill="#006633"/>
<path d="M154.433 246.115C155.735 242.163 156.697 238.106 157.306 233.99C157.498 231.593 156.885 229.014 155.141 227.361C151.879 224.266 146.337 225.74 142.925 228.669C137.995 232.901 135.536 239.406 134.606 245.842C133.677 252.278 134.086 258.823 133.862 265.322C133.638 271.821 132.71 278.503 129.401 284.099C126.092 289.694 119.951 293.989 113.474 293.513C110.859 293.372 108.377 292.318 106.457 290.536C105.515 289.638 104.801 288.527 104.376 287.297C103.951 286.066 103.826 284.751 104.013 283.462C100.703 289.397 102.381 297.442 107.319 302.108C112.257 306.774 119.853 308.093 126.344 306.101C132.836 304.109 138.179 299.114 141.371 293.113C144.562 287.112 145.731 280.18 145.562 273.384C145.432 268.165 144.546 262.903 145.427 257.758C146.307 252.612 149.524 247.388 154.595 246.176L154.433 246.115Z" fill="black"/>
<path d="M177.209 252.88C178.074 255.772 181.381 257.556 184.356 257.066C187.332 256.577 189.778 254.124 190.683 251.244C191.5 248.302 191.165 245.159 189.747 242.456C188.965 240.836 187.872 239.386 186.531 238.189C185.189 236.993 183.624 236.073 181.927 235.482C180.22 234.916 178.402 234.768 176.626 235.052C174.851 235.336 173.169 236.044 171.723 237.114C171.569 236.465 171.245 235.868 170.784 235.385C170.323 234.902 169.742 234.552 169.101 234.368C167.809 234.02 166.446 234.04 165.166 234.427C161.475 235.48 158.277 237.809 156.141 241C154.031 244.182 152.636 247.783 152.051 251.557C151.044 257.216 151.415 263.4 154.589 268.189C157.764 272.979 164.258 275.807 169.526 273.523C169.855 271.842 169.077 270.149 168.176 268.691C167.276 267.234 166.209 265.815 165.863 264.137C165.517 262.459 166.18 260.406 167.801 259.857C169.184 259.389 170.659 260.148 172.116 260.239C172.943 260.291 173.77 260.125 174.513 259.756C175.255 259.387 175.888 258.829 176.348 258.138C176.807 257.447 177.077 256.647 177.13 255.819C177.183 254.991 177.018 254.163 176.651 253.418L177.209 252.88Z" fill="black"/>
<path d="M613.333 487H0.667391C0.490388 487 0.320634 486.93 0.195474 486.804C0.0703137 486.679 0 486.509 0 486.332C0 486.154 0.0703137 485.985 0.195474 485.859C0.320634 485.734 0.490388 485.663 0.667391 485.663H613.333C613.51 485.663 613.679 485.734 613.805 485.859C613.93 485.985 614 486.154 614 486.332C614 486.509 613.93 486.679 613.805 486.804C613.679 486.93 613.51 487 613.333 487Z" fill="white"/>
</g>
<path d="M19.5 541.484H9.64062V549.547H21.0938V552H6.64062V529.25H20.9375V531.719H9.64062V539.031H19.5V541.484ZM27.0938 549.641H36.9844V552H23.5625V549.875L32.8906 537.484H23.7031V535.094H36.5156V537.141L27.0938 549.641ZM42.9688 549.641H52.8594V552H39.4375V549.875L48.7656 537.484H39.5781V535.094H52.3906V537.141L42.9688 549.641ZM62.8906 552.312C60.599 552.312 58.7344 551.562 57.2969 550.062C55.8594 548.552 55.1406 546.536 55.1406 544.016V543.484C55.1406 541.807 55.4583 540.312 56.0938 539C56.7396 537.677 57.6354 536.646 58.7812 535.906C59.9375 535.156 61.1875 534.781 62.5312 534.781C64.7292 534.781 66.4375 535.505 67.6562 536.953C68.875 538.401 69.4844 540.474 69.4844 543.172V544.375H58.0312C58.0729 546.042 58.5573 547.391 59.4844 548.422C60.4219 549.443 61.6094 549.953 63.0469 549.953C64.0677 549.953 64.9323 549.745 65.6406 549.328C66.349 548.911 66.9688 548.359 67.5 547.672L69.2656 549.047C67.849 551.224 65.724 552.312 62.8906 552.312ZM62.5312 537.156C61.3646 537.156 60.3854 537.583 59.5938 538.438C58.8021 539.281 58.3125 540.469 58.125 542H66.5938V541.781C66.5104 540.312 66.1146 539.177 65.4062 538.375C64.6979 537.562 63.7396 537.156 62.5312 537.156ZM75.9844 552H73.0938V528H75.9844V552ZM99 552C98.8333 551.667 98.6979 551.073 98.5938 550.219C97.25 551.615 95.6458 552.312 93.7812 552.312C92.1146 552.312 90.7448 551.844 89.6719 550.906C88.6094 549.958 88.0781 548.76 88.0781 547.312C88.0781 545.552 88.7448 544.188 90.0781 543.219C91.4219 542.24 93.3073 541.75 95.7344 541.75H98.5469V540.422C98.5469 539.411 98.2448 538.609 97.6406 538.016C97.0365 537.411 96.1458 537.109 94.9688 537.109C93.9375 537.109 93.0729 537.37 92.375 537.891C91.6771 538.411 91.3281 539.042 91.3281 539.781H88.4219C88.4219 538.938 88.7188 538.125 89.3125 537.344C89.9167 536.552 90.7292 535.927 91.75 535.469C92.7812 535.01 93.9115 534.781 95.1406 534.781C97.0885 534.781 98.6146 535.271 99.7188 536.25C100.823 537.219 101.396 538.557 101.438 540.266V548.047C101.438 549.599 101.635 550.833 102.031 551.75V552H99ZM94.2031 549.797C95.1094 549.797 95.9688 549.562 96.7812 549.094C97.5938 548.625 98.1823 548.016 98.5469 547.266V543.797H96.2812C92.7396 543.797 90.9688 544.833 90.9688 546.906C90.9688 547.812 91.2708 548.521 91.875 549.031C92.4792 549.542 93.2552 549.797 94.2031 549.797ZM115.328 552V537.328H112.656V535.094H115.328V533.359C115.328 531.547 115.812 530.146 116.781 529.156C117.75 528.167 119.12 527.672 120.891 527.672C121.557 527.672 122.219 527.76 122.875 527.938L122.719 530.281C122.229 530.188 121.708 530.141 121.156 530.141C120.219 530.141 119.495 530.417 118.984 530.969C118.474 531.51 118.219 532.292 118.219 533.312V535.094H121.828V537.328H118.219V552H115.328ZM131.672 552.312C129.38 552.312 127.516 551.562 126.078 550.062C124.641 548.552 123.922 546.536 123.922 544.016V543.484C123.922 541.807 124.24 540.312 124.875 539C125.521 537.677 126.417 536.646 127.562 535.906C128.719 535.156 129.969 534.781 131.312 534.781C133.51 534.781 135.219 535.505 136.438 536.953C137.656 538.401 138.266 540.474 138.266 543.172V544.375H126.812C126.854 546.042 127.339 547.391 128.266 548.422C129.203 549.443 130.391 549.953 131.828 549.953C132.849 549.953 133.714 549.745 134.422 549.328C135.13 548.911 135.75 548.359 136.281 547.672L138.047 549.047C136.63 551.224 134.505 552.312 131.672 552.312ZM131.312 537.156C130.146 537.156 129.167 537.583 128.375 538.438C127.583 539.281 127.094 540.469 126.906 542H135.375V541.781C135.292 540.312 134.896 539.177 134.188 538.375C133.479 537.562 132.521 537.156 131.312 537.156ZM144.766 552H141.875V528H144.766V552ZM152.297 537.141C153.578 535.568 155.245 534.781 157.297 534.781C160.87 534.781 162.672 536.797 162.703 540.828V552H159.812V540.812C159.802 539.594 159.521 538.693 158.969 538.109C158.427 537.526 157.578 537.234 156.422 537.234C155.484 537.234 154.661 537.484 153.953 537.984C153.245 538.484 152.693 539.141 152.297 539.953V552H149.406V528H152.297V537.141ZM177.469 552C177.302 551.667 177.167 551.073 177.062 550.219C175.719 551.615 174.115 552.312 172.25 552.312C170.583 552.312 169.214 551.844 168.141 550.906C167.078 549.958 166.547 548.76 166.547 547.312C166.547 545.552 167.214 544.188 168.547 543.219C169.891 542.24 171.776 541.75 174.203 541.75H177.016V540.422C177.016 539.411 176.714 538.609 176.109 538.016C175.505 537.411 174.615 537.109 173.438 537.109C172.406 537.109 171.542 537.37 170.844 537.891C170.146 538.411 169.797 539.042 169.797 539.781H166.891C166.891 538.938 167.188 538.125 167.781 537.344C168.385 536.552 169.198 535.927 170.219 535.469C171.25 535.01 172.38 534.781 173.609 534.781C175.557 534.781 177.083 535.271 178.188 536.25C179.292 537.219 179.865 538.557 179.906 540.266V548.047C179.906 549.599 180.104 550.833 180.5 551.75V552H177.469ZM172.672 549.797C173.578 549.797 174.438 549.562 175.25 549.094C176.062 548.625 176.651 548.016 177.016 547.266V543.797H174.75C171.208 543.797 169.438 544.833 169.438 546.906C169.438 547.812 169.74 548.521 170.344 549.031C170.948 549.542 171.724 549.797 172.672 549.797ZM194.281 547.516C194.281 546.734 193.984 546.13 193.391 545.703C192.807 545.266 191.781 544.891 190.312 544.578C188.854 544.266 187.693 543.891 186.828 543.453C185.974 543.016 185.339 542.495 184.922 541.891C184.516 541.286 184.312 540.568 184.312 539.734C184.312 538.349 184.896 537.177 186.062 536.219C187.24 535.26 188.74 534.781 190.562 534.781C192.479 534.781 194.031 535.276 195.219 536.266C196.417 537.255 197.016 538.521 197.016 540.062H194.109C194.109 539.271 193.771 538.589 193.094 538.016C192.427 537.443 191.583 537.156 190.562 537.156C189.51 537.156 188.688 537.385 188.094 537.844C187.5 538.302 187.203 538.901 187.203 539.641C187.203 540.339 187.479 540.865 188.031 541.219C188.583 541.573 189.578 541.911 191.016 542.234C192.464 542.557 193.635 542.943 194.531 543.391C195.427 543.839 196.089 544.38 196.516 545.016C196.953 545.641 197.172 546.406 197.172 547.312C197.172 548.823 196.568 550.036 195.359 550.953C194.151 551.859 192.583 552.312 190.656 552.312C189.302 552.312 188.104 552.073 187.062 551.594C186.021 551.115 185.203 550.448 184.609 549.594C184.026 548.729 183.734 547.797 183.734 546.797H186.625C186.677 547.766 187.062 548.536 187.781 549.109C188.51 549.672 189.469 549.953 190.656 549.953C191.75 549.953 192.625 549.734 193.281 549.297C193.948 548.849 194.281 548.255 194.281 547.516ZM203.656 549.641H213.547V552H200.125V549.875L209.453 537.484H200.266V535.094H213.078V537.141L203.656 549.641ZM219.547 535.094L219.641 537.219C220.932 535.594 222.62 534.781 224.703 534.781C228.276 534.781 230.078 536.797 230.109 540.828V552H227.219V540.812C227.208 539.594 226.927 538.693 226.375 538.109C225.833 537.526 224.984 537.234 223.828 537.234C222.891 537.234 222.068 537.484 221.359 537.984C220.651 538.484 220.099 539.141 219.703 539.953V552H216.812V535.094H219.547ZM244.906 552C244.74 551.667 244.604 551.073 244.5 550.219C243.156 551.615 241.552 552.312 239.688 552.312C238.021 552.312 236.651 551.844 235.578 550.906C234.516 549.958 233.984 548.76 233.984 547.312C233.984 545.552 234.651 544.188 235.984 543.219C237.328 542.24 239.214 541.75 241.641 541.75H244.453V540.422C244.453 539.411 244.151 538.609 243.547 538.016C242.943 537.411 242.052 537.109 240.875 537.109C239.844 537.109 238.979 537.37 238.281 537.891C237.583 538.411 237.234 539.042 237.234 539.781H234.328C234.328 538.938 234.625 538.125 235.219 537.344C235.823 536.552 236.635 535.927 237.656 535.469C238.688 535.01 239.818 534.781 241.047 534.781C242.995 534.781 244.521 535.271 245.625 536.25C246.729 537.219 247.302 538.557 247.344 540.266V548.047C247.344 549.599 247.542 550.833 247.938 551.75V552H244.906ZM240.109 549.797C241.016 549.797 241.875 549.562 242.688 549.094C243.5 548.625 244.089 548.016 244.453 547.266V543.797H242.188C238.646 543.797 236.875 544.833 236.875 546.906C236.875 547.812 237.177 548.521 237.781 549.031C238.385 549.542 239.161 549.797 240.109 549.797ZM242.781 528H246.281L242.094 532.594H239.766L242.781 528ZM255.016 552H252.125V528H255.016V552ZM258.891 543.391C258.891 541.734 259.214 540.245 259.859 538.922C260.516 537.599 261.422 536.578 262.578 535.859C263.745 535.141 265.073 534.781 266.562 534.781C268.865 534.781 270.724 535.578 272.141 537.172C273.568 538.766 274.281 540.885 274.281 543.531V543.734C274.281 545.38 273.964 546.859 273.328 548.172C272.703 549.474 271.802 550.49 270.625 551.219C269.458 551.948 268.115 552.312 266.594 552.312C264.302 552.312 262.443 551.516 261.016 549.922C259.599 548.328 258.891 546.219 258.891 543.594V543.391ZM261.797 543.734C261.797 545.609 262.229 547.115 263.094 548.25C263.969 549.385 265.135 549.953 266.594 549.953C268.062 549.953 269.229 549.38 270.094 548.234C270.958 547.078 271.391 545.464 271.391 543.391C271.391 541.536 270.948 540.036 270.062 538.891C269.188 537.734 268.021 537.156 266.562 537.156C265.135 537.156 263.984 537.724 263.109 538.859C262.234 539.995 261.797 541.62 261.797 543.734ZM267.875 528H271.375L267.188 532.594H264.859L267.875 528ZM283.234 548.078L287.422 535.094H290.375L284.312 552H282.109L275.984 535.094H278.938L283.234 548.078ZM303.344 552C303.177 551.667 303.042 551.073 302.938 550.219C301.594 551.615 299.99 552.312 298.125 552.312C296.458 552.312 295.089 551.844 294.016 550.906C292.953 549.958 292.422 548.76 292.422 547.312C292.422 545.552 293.089 544.188 294.422 543.219C295.766 542.24 297.651 541.75 300.078 541.75H302.891V540.422C302.891 539.411 302.589 538.609 301.984 538.016C301.38 537.411 300.49 537.109 299.312 537.109C298.281 537.109 297.417 537.37 296.719 537.891C296.021 538.411 295.672 539.042 295.672 539.781H292.766C292.766 538.938 293.062 538.125 293.656 537.344C294.26 536.552 295.073 535.927 296.094 535.469C297.125 535.01 298.255 534.781 299.484 534.781C301.432 534.781 302.958 535.271 304.062 536.25C305.167 537.219 305.74 538.557 305.781 540.266V548.047C305.781 549.599 305.979 550.833 306.375 551.75V552H303.344ZM298.547 549.797C299.453 549.797 300.312 549.562 301.125 549.094C301.938 548.625 302.526 548.016 302.891 547.266V543.797H300.625C297.083 543.797 295.312 544.833 295.312 546.906C295.312 547.812 295.615 548.521 296.219 549.031C296.823 549.542 297.599 549.797 298.547 549.797ZM313.453 552H310.562V528H313.453V552ZM328.75 535.094L328.828 536.969C330.068 535.51 331.74 534.781 333.844 534.781C336.208 534.781 337.818 535.688 338.672 537.5C339.234 536.688 339.964 536.031 340.859 535.531C341.766 535.031 342.833 534.781 344.062 534.781C347.771 534.781 349.656 536.745 349.719 540.672V552H346.828V540.844C346.828 539.635 346.552 538.734 346 538.141C345.448 537.536 344.521 537.234 343.219 537.234C342.146 537.234 341.255 537.557 340.547 538.203C339.839 538.839 339.427 539.698 339.312 540.781V552H336.406V540.922C336.406 538.464 335.203 537.234 332.797 537.234C330.901 537.234 329.604 538.042 328.906 539.656V552H326.016V535.094H328.75ZM361.109 552.312C358.818 552.312 356.953 551.562 355.516 550.062C354.078 548.552 353.359 546.536 353.359 544.016V543.484C353.359 541.807 353.677 540.312 354.312 539C354.958 537.677 355.854 536.646 357 535.906C358.156 535.156 359.406 534.781 360.75 534.781C362.948 534.781 364.656 535.505 365.875 536.953C367.094 538.401 367.703 540.474 367.703 543.172V544.375H356.25C356.292 546.042 356.776 547.391 357.703 548.422C358.641 549.443 359.828 549.953 361.266 549.953C362.286 549.953 363.151 549.745 363.859 549.328C364.568 548.911 365.188 548.359 365.719 547.672L367.484 549.047C366.068 551.224 363.943 552.312 361.109 552.312ZM360.75 537.156C359.583 537.156 358.604 537.583 357.812 538.438C357.021 539.281 356.531 540.469 356.344 542H364.812V541.781C364.729 540.312 364.333 539.177 363.625 538.375C362.917 537.562 361.958 537.156 360.75 537.156ZM362.156 528H365.656L361.469 532.594H359.141L362.156 528ZM370.375 543.406C370.375 540.771 370.984 538.677 372.203 537.125C373.422 535.562 375.036 534.781 377.047 534.781C379.109 534.781 380.719 535.51 381.875 536.969L382.016 535.094H384.656V551.594C384.656 553.781 384.005 555.505 382.703 556.766C381.411 558.026 379.672 558.656 377.484 558.656C376.266 558.656 375.073 558.396 373.906 557.875C372.74 557.354 371.849 556.641 371.234 555.734L372.734 554C373.974 555.531 375.49 556.297 377.281 556.297C378.688 556.297 379.781 555.901 380.562 555.109C381.354 554.318 381.75 553.203 381.75 551.766V550.312C380.594 551.646 379.016 552.312 377.016 552.312C375.036 552.312 373.432 551.516 372.203 549.922C370.984 548.328 370.375 546.156 370.375 543.406ZM373.281 543.734C373.281 545.641 373.672 547.141 374.453 548.234C375.234 549.318 376.328 549.859 377.734 549.859C379.557 549.859 380.896 549.031 381.75 547.375V539.656C380.865 538.042 379.536 537.234 377.766 537.234C376.359 537.234 375.26 537.781 374.469 538.875C373.677 539.969 373.281 541.589 373.281 543.734ZM399.703 535.094L399.797 537.219C401.089 535.594 402.776 534.781 404.859 534.781C408.432 534.781 410.234 536.797 410.266 540.828V552H407.375V540.812C407.365 539.594 407.083 538.693 406.531 538.109C405.99 537.526 405.141 537.234 403.984 537.234C403.047 537.234 402.224 537.484 401.516 537.984C400.807 538.484 400.255 539.141 399.859 539.953V552H396.969V535.094H399.703ZM421.641 552.312C419.349 552.312 417.484 551.562 416.047 550.062C414.609 548.552 413.891 546.536 413.891 544.016V543.484C413.891 541.807 414.208 540.312 414.844 539C415.49 537.677 416.385 536.646 417.531 535.906C418.688 535.156 419.938 534.781 421.281 534.781C423.479 534.781 425.188 535.505 426.406 536.953C427.625 538.401 428.234 540.474 428.234 543.172V544.375H416.781C416.823 546.042 417.307 547.391 418.234 548.422C419.172 549.443 420.359 549.953 421.797 549.953C422.818 549.953 423.682 549.745 424.391 549.328C425.099 548.911 425.719 548.359 426.25 547.672L428.016 549.047C426.599 551.224 424.474 552.312 421.641 552.312ZM421.281 537.156C420.115 537.156 419.135 537.583 418.344 538.438C417.552 539.281 417.062 540.469 416.875 542H425.344V541.781C425.26 540.312 424.865 539.177 424.156 538.375C423.448 537.562 422.49 537.156 421.281 537.156ZM434.312 535.094L434.391 536.969C435.63 535.51 437.302 534.781 439.406 534.781C441.771 534.781 443.38 535.688 444.234 537.5C444.797 536.688 445.526 536.031 446.422 535.531C447.328 535.031 448.396 534.781 449.625 534.781C453.333 534.781 455.219 536.745 455.281 540.672V552H452.391V540.844C452.391 539.635 452.115 538.734 451.562 538.141C451.01 537.536 450.083 537.234 448.781 537.234C447.708 537.234 446.818 537.557 446.109 538.203C445.401 538.839 444.99 539.698 444.875 540.781V552H441.969V540.922C441.969 538.464 440.766 537.234 438.359 537.234C436.464 537.234 435.167 538.042 434.469 539.656V552H431.578V535.094H434.312ZM474.375 549.953C475.406 549.953 476.307 549.641 477.078 549.016C477.849 548.391 478.276 547.609 478.359 546.672H481.094C481.042 547.641 480.708 548.562 480.094 549.438C479.479 550.312 478.656 551.01 477.625 551.531C476.604 552.052 475.521 552.312 474.375 552.312C472.073 552.312 470.24 551.547 468.875 550.016C467.521 548.474 466.844 546.37 466.844 543.703V543.219C466.844 541.573 467.146 540.109 467.75 538.828C468.354 537.547 469.219 536.552 470.344 535.844C471.479 535.135 472.818 534.781 474.359 534.781C476.255 534.781 477.828 535.349 479.078 536.484C480.339 537.62 481.01 539.094 481.094 540.906H478.359C478.276 539.812 477.859 538.917 477.109 538.219C476.37 537.51 475.453 537.156 474.359 537.156C472.891 537.156 471.75 537.688 470.938 538.75C470.135 539.802 469.734 541.328 469.734 543.328V543.875C469.734 545.823 470.135 547.323 470.938 548.375C471.74 549.427 472.885 549.953 474.375 549.953ZM494.188 547.516C494.188 546.734 493.891 546.13 493.297 545.703C492.714 545.266 491.688 544.891 490.219 544.578C488.76 544.266 487.599 543.891 486.734 543.453C485.88 543.016 485.245 542.495 484.828 541.891C484.422 541.286 484.219 540.568 484.219 539.734C484.219 538.349 484.802 537.177 485.969 536.219C487.146 535.26 488.646 534.781 490.469 534.781C492.385 534.781 493.938 535.276 495.125 536.266C496.323 537.255 496.922 538.521 496.922 540.062H494.016C494.016 539.271 493.677 538.589 493 538.016C492.333 537.443 491.49 537.156 490.469 537.156C489.417 537.156 488.594 537.385 488 537.844C487.406 538.302 487.109 538.901 487.109 539.641C487.109 540.339 487.385 540.865 487.938 541.219C488.49 541.573 489.484 541.911 490.922 542.234C492.37 542.557 493.542 542.943 494.438 543.391C495.333 543.839 495.995 544.38 496.422 545.016C496.859 545.641 497.078 546.406 497.078 547.312C497.078 548.823 496.474 550.036 495.266 550.953C494.057 551.859 492.49 552.312 490.562 552.312C489.208 552.312 488.01 552.073 486.969 551.594C485.927 551.115 485.109 550.448 484.516 549.594C483.932 548.729 483.641 547.797 483.641 546.797H486.531C486.583 547.766 486.969 548.536 487.688 549.109C488.417 549.672 489.375 549.953 490.562 549.953C491.656 549.953 492.531 549.734 493.188 549.297C493.854 548.849 494.188 548.255 494.188 547.516ZM507.859 552.312C505.568 552.312 503.703 551.562 502.266 550.062C500.828 548.552 500.109 546.536 500.109 544.016V543.484C500.109 541.807 500.427 540.312 501.062 539C501.708 537.677 502.604 536.646 503.75 535.906C504.906 535.156 506.156 534.781 507.5 534.781C509.698 534.781 511.406 535.505 512.625 536.953C513.844 538.401 514.453 540.474 514.453 543.172V544.375H503C503.042 546.042 503.526 547.391 504.453 548.422C505.391 549.443 506.578 549.953 508.016 549.953C509.036 549.953 509.901 549.745 510.609 549.328C511.318 548.911 511.938 548.359 512.469 547.672L514.234 549.047C512.818 551.224 510.693 552.312 507.859 552.312ZM507.5 537.156C506.333 537.156 505.354 537.583 504.562 538.438C503.771 539.281 503.281 540.469 503.094 542H511.562V541.781C511.479 540.312 511.083 539.177 510.375 538.375C509.667 537.562 508.708 537.156 507.5 537.156ZM523.172 548.078L527.359 535.094H530.312L524.25 552H522.047L515.922 535.094H518.875L523.172 548.078ZM539.891 552.312C537.599 552.312 535.734 551.562 534.297 550.062C532.859 548.552 532.141 546.536 532.141 544.016V543.484C532.141 541.807 532.458 540.312 533.094 539C533.74 537.677 534.635 536.646 535.781 535.906C536.938 535.156 538.188 534.781 539.531 534.781C541.729 534.781 543.438 535.505 544.656 536.953C545.875 538.401 546.484 540.474 546.484 543.172V544.375H535.031C535.073 546.042 535.557 547.391 536.484 548.422C537.422 549.443 538.609 549.953 540.047 549.953C541.068 549.953 541.932 549.745 542.641 549.328C543.349 548.911 543.969 548.359 544.5 547.672L546.266 549.047C544.849 551.224 542.724 552.312 539.891 552.312ZM539.531 537.156C538.365 537.156 537.385 537.583 536.594 538.438C535.802 539.281 535.312 540.469 535.125 542H543.594V541.781C543.51 540.312 543.115 539.177 542.406 538.375C541.698 537.562 540.74 537.156 539.531 537.156ZM549.156 543.406C549.156 540.771 549.766 538.677 550.984 537.125C552.203 535.562 553.818 534.781 555.828 534.781C557.891 534.781 559.5 535.51 560.656 536.969L560.797 535.094H563.438V551.594C563.438 553.781 562.786 555.505 561.484 556.766C560.193 558.026 558.453 558.656 556.266 558.656C555.047 558.656 553.854 558.396 552.688 557.875C551.521 557.354 550.63 556.641 550.016 555.734L551.516 554C552.755 555.531 554.271 556.297 556.062 556.297C557.469 556.297 558.562 555.901 559.344 555.109C560.135 554.318 560.531 553.203 560.531 551.766V550.312C559.375 551.646 557.797 552.312 555.797 552.312C553.818 552.312 552.214 551.516 550.984 549.922C549.766 548.328 549.156 546.156 549.156 543.406ZM552.062 543.734C552.062 545.641 552.453 547.141 553.234 548.234C554.016 549.318 555.109 549.859 556.516 549.859C558.339 549.859 559.677 549.031 560.531 547.375V539.656C559.646 538.042 558.318 537.234 556.547 537.234C555.141 537.234 554.042 537.781 553.25 538.875C552.458 539.969 552.062 541.589 552.062 543.734ZM571.734 531V535.094H574.891V537.328H571.734V547.812C571.734 548.49 571.875 549 572.156 549.344C572.438 549.677 572.917 549.844 573.594 549.844C573.927 549.844 574.385 549.781 574.969 549.656V552C574.208 552.208 573.469 552.312 572.75 552.312C571.458 552.312 570.484 551.922 569.828 551.141C569.172 550.359 568.844 549.25 568.844 547.812V537.328H565.766V535.094H568.844V531H571.734ZM585.297 552.312C583.005 552.312 581.141 551.562 579.703 550.062C578.266 548.552 577.547 546.536 577.547 544.016V543.484C577.547 541.807 577.865 540.312 578.5 539C579.146 537.677 580.042 536.646 581.188 535.906C582.344 535.156 583.594 534.781 584.938 534.781C587.135 534.781 588.844 535.505 590.062 536.953C591.281 538.401 591.891 540.474 591.891 543.172V544.375H580.438C580.479 546.042 580.964 547.391 581.891 548.422C582.828 549.443 584.016 549.953 585.453 549.953C586.474 549.953 587.339 549.745 588.047 549.328C588.755 548.911 589.375 548.359 589.906 547.672L591.672 549.047C590.255 551.224 588.13 552.312 585.297 552.312ZM584.938 537.156C583.771 537.156 582.792 537.583 582 538.438C581.208 539.281 580.719 540.469 580.531 542H589V541.781C588.917 540.312 588.521 539.177 587.812 538.375C587.104 537.562 586.146 537.156 584.938 537.156ZM586.344 528H589.844L585.656 532.594H583.328L586.344 528ZM598.391 552H595.5V528H598.391V552ZM603.094 550.484C603.094 549.984 603.24 549.568 603.531 549.234C603.833 548.901 604.281 548.734 604.875 548.734C605.469 548.734 605.917 548.901 606.219 549.234C606.531 549.568 606.688 549.984 606.688 550.484C606.688 550.964 606.531 551.365 606.219 551.688C605.917 552.01 605.469 552.172 604.875 552.172C604.281 552.172 603.833 552.01 603.531 551.688C603.24 551.365 603.094 550.964 603.094 550.484Z" fill="#006633"/>
<defs>
<clipPath id="clip0">
<rect width="614" height="487" fill="white"/>
</clipPath>
</defs>
</svg>
