<svg width="38" height="38" viewBox="0 0 38 38" fill="none" xmlns="http://www.w3.org/2000/svg">
<path d="M36.8834 17.8608C36.8693 17.8458 36.855 17.8311 36.8403 17.8166L20.185 1.16121C20.1341 1.10978 20.0802 1.06192 20.0235 1.01784L20.0216 1.01616C19.7219 0.783127 19.3609 0.666625 18.9999 0.666657" fill="white"/>
<path fill-rule="evenodd" clip-rule="evenodd" d="M18.9999 0.666657C8.87478 0.666737 0.666748 8.87481 0.666748 19C0.666748 29.1252 8.87486 37.3333 19.0001 37.3333C29.1247 37.3333 37.3324 29.1263 37.3334 19.0019C37.3339 18.5917 37.1839 18.1814 36.8834 17.8608M19.9627 5.65293C19.9219 6.02534 19.8936 6.42512 19.8852 6.84582C19.839 9.15591 20.3893 12.0211 22.7214 14.5326C25.0176 17.0054 28.0572 17.7601 30.6752 17.8553C31.1949 17.8742 31.6909 17.8666 32.1521 17.8423L19.9627 5.65293Z" fill="white"/>
</svg>
